<svg viewBox="0 0 11 17" xmlns="http://www.w3.org/2000/svg">
	<path fill-rule="evenodd" clip-rule="evenodd"
		d="M6.01586 16.328V14.864C7.24786 14.784 8.23586 14.42 8.97986 13.772C9.72386 13.124 10.0959 12.264 10.0959 11.192V11.048C10.0959 10.056 9.74786 9.27601 9.05186 8.70801C8.35586 8.14001 7.34386 7.77601 6.01586 7.61601V4.18401C6.57586 4.32801 7.02786 4.58401 7.37186 4.95201C7.71586 5.32001 7.88786 5.76801 7.88786 6.29601V6.58401H9.71186V6.15201C9.71186 5.70401 9.62386 5.27601 9.44786 4.86801C9.27186 4.46001 9.02386 4.08801 8.70386 3.75201C8.38386 3.41601 7.99586 3.13201 7.53986 2.90001C7.08386 2.66801 6.57586 2.50401 6.01586 2.40801V0.872009H4.28786V2.36001C3.79186 2.40801 3.31986 2.51601 2.87186 2.68401C2.42386 2.85201 2.03186 3.07601 1.69586 3.35601C1.35986 3.63601 1.09186 3.97201 0.891859 4.36401C0.691859 4.75601 0.591859 5.20801 0.591859 5.72001V5.86401C0.591859 6.82401 0.907859 7.57201 1.53986 8.10801C2.17186 8.64401 3.08786 8.99201 4.28786 9.15201V13.064C3.58386 12.904 3.03986 12.592 2.65586 12.128C2.27186 11.664 2.07986 11.048 2.07986 10.28V9.99201H0.255859V10.568C0.255859 11.032 0.335859 11.492 0.495859 11.948C0.655859 12.404 0.899859 12.828 1.22786 13.22C1.55586 13.612 1.97186 13.948 2.47586 14.228C2.97986 14.508 3.58386 14.704 4.28786 14.816V16.328H6.01586ZM4.28786 7.42401C3.59986 7.29601 3.12386 7.09201 2.85986 6.81201C2.59586 6.53201 2.46386 6.16801 2.46386 5.72001C2.46386 5.25601 2.63986 4.88801 2.99186 4.61601C3.34386 4.34401 3.77586 4.16801 4.28786 4.08801V7.42401ZM6.01586 9.34401V13.136C6.70386 13.056 7.24386 12.848 7.63586 12.512C8.02786 12.176 8.22386 11.736 8.22386 11.192C8.22386 10.632 8.04786 10.216 7.69586 9.94401C7.34386 9.67201 6.78386 9.47201 6.01586 9.34401Z"
		fill="currentColor" />
</svg>