<svg viewBox="0 0 13 16" xmlns="http://www.w3.org/2000/svg">
	<path d="M6.59852 7.70722C5.56736 7.70722 4.67445 7.32746 3.94488 6.5782C3.21532 5.82906 2.84548 4.91244 2.84548 3.85349C2.84548 2.7949 3.21532 1.87816 3.945 1.12878C4.67469 0.379758 5.56748 0 6.59852 0C7.62981 0 8.52248 0.379758 9.25204 1.1289C9.98161 1.87804 10.3516 2.79478 10.3516 3.85349C10.3516 4.91244 9.98161 5.82918 9.25192 6.57832C8.52224 7.32734 7.62945 7.70722 6.59852 7.70722Z"
		fill="currentColor" />
	<path d="M0.0315027 12.3031C0.0525446 11.9914 0.0951042 11.6513 0.157754 11.2921C0.220998 10.9303 0.30243 10.5883 0.399912 10.2757C0.500604 9.95256 0.637553 9.63347 0.806838 9.32769C0.982543 9.01031 1.18892 8.73394 1.4205 8.50652C1.66266 8.26861 1.95914 8.07733 2.30199 7.9378C2.64365 7.79901 3.02229 7.7287 3.42731 7.7287C3.58637 7.7287 3.7402 7.79571 4.03728 7.99432C4.22012 8.11676 4.43398 8.25836 4.6727 8.41497C4.87681 8.54852 5.15333 8.67364 5.49487 8.78692C5.82809 8.89764 6.16642 8.95379 6.50036 8.95379C6.83429 8.95379 7.1725 8.89764 7.50608 8.78692C7.84727 8.67376 8.12378 8.54864 8.32766 8.41509C8.56411 8.25994 8.7781 8.11834 8.96367 7.9942C9.26039 7.79559 9.41434 7.72858 9.5734 7.72858C9.97855 7.72858 10.3571 7.79901 10.6986 7.93793C11.0412 8.07721 11.3378 8.26849 11.5802 8.50665C11.8117 8.73418 12.0182 9.01043 12.1936 9.32769C12.3628 9.63347 12.4998 9.95244 12.6006 10.2758C12.6979 10.5884 12.7794 10.9303 12.8426 11.2921C12.9053 11.6508 12.9478 11.991 12.9689 12.3035C12.9895 12.6096 13 12.9274 13 13.2483C13 14.0835 12.7414 14.7597 12.2316 15.2583C11.728 15.7504 11.0617 16 10.2514 16H2.74862C1.93834 16 1.27225 15.7505 0.768559 15.2583C0.258564 14.76 0 14.0838 0 13.2482C0.000119209 12.9258 0.0106983 12.6078 0.0315027 12.3031Z"
		fill="currentColor" />
</svg>